<svg width="11" height="11" viewBox="0 0 11 11" fill="none" xmlns="http://www.w3.org/2000/svg">
<path fill-rule="evenodd" clip-rule="evenodd" d="M0.710885 6.22354L8.65782 6.22354L5.18266 9.76977C5.04674 9.9018 4.96981 10.0849 4.96981 10.2763C4.96981 10.4678 5.04674 10.6509 5.18266 10.7829C5.31211 10.9215 5.49161 11 5.67931 11C5.86701 11 6.04651 10.9215 6.17596 10.7829L10.7868 6.07889C11.0711 5.74743 11.0711 5.25257 10.7868 4.92111L6.17485 0.217104C6.0454 0.0784664 5.8659 0 5.6782 0C5.4905 0 5.311 0.0784664 5.18155 0.217104H5.18155C5.04563 0.349136 4.9687 0.532218 4.9687 0.723667C4.9687 0.915117 5.04563 1.0982 5.18155 1.23023L8.65782 4.77589L0.710885 4.77589C0.519349 4.76405 0.332019 4.8365 0.196336 4.97489C0.0606499 5.11329 -0.0103827 5.30436 0.00123024 5.49972C-0.0103827 5.69508 0.0606499 5.88615 0.196333 6.02454C0.332019 6.16294 0.519347 6.23538 0.710885 6.22354Z" fill="#F15F24"/>
</svg>
